<?xml version="1.0" encoding="UTF-8" standalone="no"?>
<svg width="290px" height="344px" viewBox="0 0 290 344" version="1.1" xmlns="http://www.w3.org/2000/svg" xmlns:xlink="http://www.w3.org/1999/xlink" xmlns:sketch="http://www.bohemiancoding.com/sketch/ns">
    <!-- Generator: sketchtool 3.4 (381) - http://www.bohemiancoding.com/sketch -->
    <title>il_01</title>
    <desc>Created with sketchtool.</desc>
    <defs>
        <path id="path-1" d="M0,0 L289.400108,0 L289.400108,343.393502 L0,343.393502 L0,0 Z"></path>
    </defs>
    <g id="Page-1" stroke="none" stroke-width="1" fill="none" fill-rule="evenodd" sketch:type="MSPage">
        <g id="Michelada-Desktop" sketch:type="MSArtboardGroup" transform="translate(-245.000000, -1218.000000)">
            <g id="Stages" sketch:type="MSLayerGroup" transform="translate(0.000000, 1120.000000)">
                <g id="Group-+-Page-1" transform="translate(245.000000, 98.000000)">
                    <g id="il_01">
                        <path d="M141.45331,285.564884 L98.5238881,229.938278 L58.9928051,229.938278 C55.3086534,229.938278 52.3217581,226.953477 52.3217581,223.266184 L52.3217581,219.669975 C52.3217581,219.322394 52.3479314,218.977953 52.3981841,218.642935 C52.3479314,218.307917 52.3217581,217.966617 52.3217581,217.616942 L52.3217581,52.6697581 C20.3568484,79.2115632 0.000314079422,119.247267 0.000314079422,164.042321 C0.000314079422,243.961924 64.7865235,308.747087 144.701939,308.747087 C147.527606,308.747087 150.332336,308.654957 153.122408,308.49687 C152.386415,305.570697 151.928906,302.538783 151.782336,299.42835 C147.704538,295.349505 144.219303,290.683332 141.45331,285.564884" id="Fill-1" fill="#E93435" sketch:type="MSShapeGroup"></path>
                        <path d="M206.809365,157.568307 C215.595213,157.568307 222.719581,164.690581 222.719581,173.47957 L222.719581,174.596646 C225.457307,169.564047 230.788282,166.152097 236.917018,166.152097 C245.838968,166.152097 253.07117,173.382206 253.07117,182.307296 L253.07117,248.869101 C253.455394,251.602639 253.66478,254.393758 253.66478,257.229895 C253.66478,257.927152 253.638606,258.617079 253.614527,259.308054 C275.894274,233.856105 289.39969,200.525996 289.39969,164.042531 C289.39969,102.588704 251.09561,50.0903285 197.057199,29.1087762 L197.057199,160.925816 C199.752,158.827765 203.130448,157.568307 206.809365,157.568307" id="Fill-3" fill="#E93435" sketch:type="MSShapeGroup"></path>
                        <path d="M119.458538,204.184394 L135.467166,224.930386 L135.467166,198.117426 L109.190235,198.117426 C113.121462,198.737209 116.837022,200.788148 119.458538,204.184394" id="Fill-5" fill="#292C52" sketch:type="MSShapeGroup"></path>
                        <g id="Group-9">
                            <mask id="mask-2" sketch:name="Clip 8" fill="white">
                                <use xlink:href="#path-1"></use>
                            </mask>
                            <g id="Clip-8"></g>
                            <path d="M120.069946,29.7680289 C116.384747,29.7680289 113.397852,26.7800866 113.397852,23.0948881 C113.397852,19.4096895 116.384747,16.4238412 120.069946,16.4238412 L133.413087,16.4238412 C137.098285,16.4238412 140.087274,19.4096895 140.087274,23.0948881 C140.087274,26.7800866 137.098285,29.7680289 133.413087,29.7680289 L120.069946,29.7680289 Z M52.3983935,218.64283 C52.3470939,218.978895 52.3219675,219.322289 52.3219675,219.66987 L52.3219675,223.266079 C52.3219675,226.953372 55.3088628,229.938173 58.9930144,229.938173 L98.5230505,229.938173 L93.8840975,223.926693 C88.4327256,216.864094 89.7413899,206.718282 96.8039892,201.26691 C98.9973105,199.570881 101.493195,198.532325 104.048755,198.11774 L66.692148,198.11774 L66.692148,39.0082455 L182.686913,39.0082455 L182.686913,148.902542 C188.847058,151.182758 193.248357,157.091639 193.248357,164.043264 L193.248357,165.186513 C194.254458,163.545971 195.543231,162.1033 197.057094,160.925502 L197.057094,29.109509 L197.057094,6.67167509 C197.057094,2.98647653 194.070199,-0.000418772563 190.386047,-0.000418772563 L58.9930144,-0.000418772563 C55.3088628,-0.000418772563 52.3219675,2.98647653 52.3219675,6.67167509 L52.3219675,52.6696534 L52.3219675,217.616838 C52.3219675,217.966513 52.3470939,218.307812 52.3983935,218.64283 L52.3983935,218.64283 Z" id="Fill-7" fill="#292C52" sketch:type="MSShapeGroup" mask="url(#mask-2)"></path>
                        </g>
                        <path d="M66.6917292,39.0079314 L66.6917292,198.117426 L104.049383,198.117426 C105.757975,197.833708 107.493787,197.845224 109.190863,198.117426 L135.466747,198.117426 L135.466747,126.258148 L93.3811516,126.258148 C87.7120181,126.258148 83.1159892,121.664213 83.1159892,115.994032 C83.1159892,110.323852 87.7120181,105.729917 93.3811516,105.729917 L157.025159,105.729917 C162.693245,105.729917 167.287181,110.323852 167.287181,115.994032 C167.287181,118.883563 166.088444,121.493563 164.165231,123.359195 C164.183029,123.639773 164.209202,123.918256 164.209202,124.207209 L164.209202,154.330567 C167.157361,150.423419 171.822487,147.888798 177.094834,147.888798 C179.062018,147.888798 180.94126,148.259412 182.686495,148.903274 L182.686495,39.0079314 L66.6917292,39.0079314 Z" id="Fill-10" fill="#E93435" sketch:type="MSShapeGroup"></path>
                        <path d="M140.087379,23.0954116 C140.087379,19.410213 137.09839,16.4233177 133.413191,16.4233177 L120.070051,16.4233177 C116.384852,16.4233177 113.397957,19.410213 113.397957,23.0954116 C113.397957,26.7806101 116.384852,29.7685523 120.070051,29.7685523 L133.413191,29.7685523 C137.09839,29.7685523 140.087379,26.7806101 140.087379,23.0954116" id="Fill-12" fill="#E93435" sketch:type="MSShapeGroup"></path>
                        <path d="M167.287181,115.993614 C167.287181,110.323433 162.693245,105.729498 157.025159,105.729498 L93.3811516,105.729498 C87.7120181,105.729498 83.1159892,110.323433 83.1159892,115.993614 C83.1159892,121.664841 87.7120181,126.257729 93.3811516,126.257729 L135.466747,126.257729 L135.466747,124.206791 C135.466747,116.270004 141.902235,109.834516 149.836928,109.834516 C157.488949,109.834516 163.726567,115.818776 164.166278,123.358776 C166.088444,121.493144 167.287181,118.884191 167.287181,115.993614" id="Fill-14" fill="#292C52" sketch:type="MSShapeGroup"></path>
                        <path d="M253.614527,259.30774 C253.638606,258.616765 253.66478,257.927884 253.66478,257.230628 C253.66478,254.394491 253.455394,251.603372 253.07117,248.868787 L253.07117,182.306982 C253.07117,173.381892 245.838968,166.151783 236.917018,166.151783 C230.788282,166.151783 225.45626,169.56478 222.719581,174.596332 L222.719581,173.479256 C222.719581,164.691314 215.595213,157.567993 206.809365,157.567993 C203.130448,157.567993 199.752,158.827451 197.057199,160.925502 C195.543336,162.1033 194.254563,163.545971 193.248462,165.186513 L193.248462,164.043264 C193.248462,157.091639 188.847162,151.182758 182.687018,148.902542 C180.940736,148.258679 179.062542,147.888065 177.09431,147.888065 C171.823011,147.888065 167.156838,150.423733 164.209726,154.330881 L164.209726,124.207523 C164.209726,123.91857 164.183552,123.640087 164.165755,123.359509 C163.726043,115.819509 157.489473,109.834202 149.837451,109.834202 C141.901711,109.834202 135.466224,116.26969 135.466224,124.207523 L135.466224,126.258462 L135.466224,198.11774 L135.466224,224.9307 L119.458643,204.184708 C116.837126,200.788462 113.121567,198.737523 109.190339,198.11774 C107.49431,197.845538 105.758498,197.832975 104.048859,198.11774 C101.4933,198.532325 98.9963682,199.570881 96.8040939,201.26691 C89.7414946,206.718282 88.4328303,216.864094 93.8842022,223.926693 L98.5231552,229.938173 L141.453625,285.56478 C144.21857,290.683227 147.704852,295.349401 151.78265,299.428245 C151.92922,302.538679 152.386729,305.570592 153.121675,308.496765 C158.160556,328.548643 176.303877,343.393083 197.918823,343.393083 C223.430448,343.393083 244.10839,322.714094 244.10839,297.203516 L244.10839,289.613264 C249.797415,280.829509 253.232397,270.459653 253.614527,259.30774" id="Fill-16" fill="#F9CF27" sketch:type="MSShapeGroup"></path>
                    </g>
                </g>
            </g>
        </g>
    </g>
</svg>