<?xml version="1.0" encoding="utf-8"?>
<!-- Generator: Adobe Illustrator 16.0.0, SVG Export Plug-In . SVG Version: 6.00 Build 0)  -->
<!DOCTYPE svg PUBLIC "-//W3C//DTD SVG 1.1//EN" "http://www.w3.org/Graphics/SVG/1.1/DTD/svg11.dtd">
<svg version="1.1" id="Layer_1" xmlns="http://www.w3.org/2000/svg" xmlns:xlink="http://www.w3.org/1999/xlink" x="0px" y="0px"
	 width="268px" height="268px" viewBox="0 0 268 268" enable-background="new 0 0 268 268" xml:space="preserve">
<g>
	<g>
		<g>
			<g>
				<path fill="#E6E6E6" d="M211.264,56.434L56.619,211.081c42.7,42.064,111.556,41.937,154.07-0.577
					C253.2,167.992,253.326,99.134,211.264,56.434z"/>
				<path fill="#F2F2F2" d="M56.619,211.081L211.264,56.434C168.562,14.371,99.707,14.497,57.193,57.011
					C14.679,99.522,14.556,168.378,56.619,211.081z"/>
			</g>
			<path fill="#CCCCCC" d="M133.942,10.684c67.974,0,123.076,55.102,123.076,123.073c0,67.971-55.102,123.076-123.076,123.076
				c-67.974,0-123.076-55.104-123.076-123.076C10.866,65.786,65.968,10.684,133.942,10.684 M133.942,0.166
				C60.28,0.166,0.351,60.095,0.351,133.757c0,73.662,59.929,133.591,133.591,133.591c73.66,0,133.589-59.93,133.589-133.591
				C267.531,60.095,207.602,0.166,133.942,0.166L133.942,0.166z"/>
		</g>
	</g>
	<g>
		<defs>
			<circle id="SVGID_1_" cx="133.941" cy="133.757" r="93.608"/>
		</defs>
		<clipPath id="SVGID_2_">
			<use xlink:href="#SVGID_1_"  overflow="visible"/>
		</clipPath>
		<g clip-path="url(#SVGID_2_)">
			<path fill="#FF8505" d="M185.811,179.006c-1.252-2.992-4.268-4.912-7.143-6.094l-19.445-8.951l-9.342-7.879l-15.008,14.93h-0.013
				l6.479,43.303c0.021,0.15-0.018,0.305-0.104,0.426l-6.774,9.266c-0.106,0.15-0.28,0.236-0.461,0.236
				c-0.182,0-0.356-0.088-0.462-0.236l-6.774-9.266c-0.089-0.121-0.125-0.275-0.104-0.426l6.479-43.303h-0.011l-15.012-14.93
				l-9.341,7.879l-19.442,8.951c-2.876,1.182-5.706,2.975-7.143,6.094c0,0-21.136,50.32-9.672,50.32h122.967
				C206.945,229.326,185.811,179.006,185.811,179.006L185.811,179.006z M185.811,179.006"/>
			<circle fill="#FF7505" cx="134.922" cy="120.918" r="34.492"/>
			<g>
				<path fill="#FF9905" d="M172,107.979v-0.659l-0.306-8.298l10.359-6.531l0.007,10.269c-1.153,0.494-2.007,1.624-1.987,2.961
					c0,1.743,1.396,3.15,3.159,3.15c1.762-0.024,3.163-1.433,3.142-3.171c0-1.34-0.803-2.469-1.956-2.963l-0.069-11.586
					l11.138-6.232l-60.738-32.037L74.359,85.551l25.4,13.893l1.241,8.274v0.659l-0.959-0.117c-0.26,0.354-1.017,0.707-1.017,1.058
					c0.009,1.073,0.881,2.438,2.932,3.344l0.58-2.662h0.009c-0.022-4,14.528-4.981,32.486-5.081
					c17.979-0.091,32.528,1.708,32.553,4.223c0,0.197-0.117,0.302-0.288,0.49c0.349,0.809,0.674,1.606,0.94,2.472
					c2.204-0.962,3.469-2.049,3.462-3.163c0-0.354,0.071-0.719-0.189-1.071L172,107.979z M134.907,83.134
					c-24.563,0.117-33.162,6.956-35.564,9.542l-0.022-2.445c0,0,6.984-10.598,35.586-10.741
					c28.58-0.165,35.687,10.366,35.687,10.366l0.023,2.443C168.173,89.737,159.451,82.991,134.907,83.134z"/>
				<path fill="#FF9905" d="M180.678,109.555l-1.248,17.958c3.832-6.018,7.032-3.785,7.032-3.785l-0.073-14.222
					C182.275,111.128,180.678,109.555,180.678,109.555z"/>
			</g>
		</g>
	</g>
</g>
</svg>
